REM DIRINDEX 1\2,1\3
REM DIRNAME cjc133,folder01,folder02
TITLE ""
FILE "DISC1Track06.mp3" MP3
  TRACK 01 AUDIO
    TITLE "0:"
    INDEX 01 00:00:00
  TRACK 02 AUDIO
    TITLE "3:cjc133_0232"
    INDEX 01 00:00:17
  TRACK 03 AUDIO
    TITLE "0:"
    INDEX 01 00:01:13
  TRACK 04 AUDIO
    TITLE "2:cjc133_0233"
    INDEX 01 00:01:58
  TRACK 05 AUDIO
    TITLE "2:cjc133_0234"
    INDEX 01 00:03:68
  TRACK 06 AUDIO
    TITLE "2:cjc133_0235"
    INDEX 01 00:06:24
  TRACK 07 AUDIO
    TITLE "0:"
    INDEX 01 00:07:68
  TRACK 08 AUDIO
    TITLE "2:cjc133_0236"
    INDEX 01 00:08:46
  TRACK 09 AUDIO
    TITLE "2:cjc133_0237"
    INDEX 01 00:09:73
  TRACK 10 AUDIO
    TITLE "2:cjc133_0238"
    INDEX 01 00:12:40
  TRACK 11 AUDIO
    TITLE "0:"
    INDEX 01 00:14:15
  TRACK 12 AUDIO
    TITLE "2:cjc133_0239"
    INDEX 01 00:14:66
  TRACK 13 AUDIO
    TITLE "2:cjc133_0240"
    INDEX 01 00:16:18
  TRACK 14 AUDIO
    TITLE "2:cjc133_0241"
    INDEX 01 00:18:60
  TRACK 15 AUDIO
    TITLE "0:"
    INDEX 01 00:20:28
  TRACK 16 AUDIO
    TITLE "2:cjc133_0242"
    INDEX 01 00:21:09
  TRACK 17 AUDIO
    TITLE "2:cjc133_0243"
    INDEX 01 00:23:36
  TRACK 18 AUDIO
    TITLE "2:cjc133_0244"
    INDEX 01 00:26:11
  TRACK 19 AUDIO
    TITLE "0:"
    INDEX 01 00:27:67
  TRACK 20 AUDIO
    TITLE "2:cjc133_0245"
    INDEX 01 00:28:37
  TRACK 21 AUDIO
    TITLE "2:cjc133_0246"
    INDEX 01 00:30:40
  TRACK 22 AUDIO
    TITLE "2:cjc133_0247"
    INDEX 01 00:33:52
  TRACK 23 AUDIO
    TITLE "0:"
    INDEX 01 00:35:68
  TRACK 24 AUDIO
    TITLE "2:cjc133_0248"
    INDEX 01 00:36:44
  TRACK 25 AUDIO
    TITLE "2:cjc133_0249"
    INDEX 01 00:37:67
  TRACK 26 AUDIO
    TITLE "2:cjc133_0250"
    INDEX 01 00:41:22
  TRACK 27 AUDIO
    TITLE "0:"
    INDEX 01 00:43:64
  TRACK 28 AUDIO
    TITLE "2:cjc133_0251"
    INDEX 01 00:44:42
  TRACK 29 AUDIO
    TITLE "2:cjc133_0252"
    INDEX 01 00:45:57
  TRACK 30 AUDIO
    TITLE "2:cjc133_0253"
    INDEX 01 00:48:10
  TRACK 31 AUDIO
    TITLE "0:"
    INDEX 01 00:49:39
  TRACK 32 AUDIO
    TITLE "2:cjc133_0254"
    INDEX 01 00:50:13
  TRACK 33 AUDIO
    TITLE "2:cjc133_0255"
    INDEX 01 00:51:24
  TRACK 34 AUDIO
    TITLE "2:cjc133_0256"
    INDEX 01 00:53:49
  TRACK 35 AUDIO
    TITLE "0:"
    INDEX 01 00:55:16
  TRACK 36 AUDIO
    TITLE "2:cjc133_0257"
    INDEX 01 00:55:61
  TRACK 37 AUDIO
    TITLE "2:cjc133_0258"
    INDEX 01 00:58:40
  TRACK 38 AUDIO
    TITLE "2:cjc133_0259"
    INDEX 01 01:01:70
  TRACK 39 AUDIO
    TITLE "0:"
    INDEX 01 01:04:37
  TRACK 40 AUDIO
    TITLE "2:cjc133_0260"
    INDEX 01 01:05:09
  TRACK 41 AUDIO
    TITLE "2:cjc133_0261"
    INDEX 01 01:06:06
  TRACK 42 AUDIO
    TITLE "2:cjc133_0262"
    INDEX 01 01:09:54
  TRACK 43 AUDIO
    TITLE "0:"
    INDEX 01 01:12:32
  TRACK 44 AUDIO
    TITLE "2:cjc133_0263"
    INDEX 01 01:13:10
  TRACK 45 AUDIO
    TITLE "2:cjc133_0264"
    INDEX 01 01:15:48
  TRACK 46 AUDIO
    TITLE "2:cjc133_0265"
    INDEX 01 01:18:68
  TRACK 47 AUDIO
    TITLE "0:"
    INDEX 01 01:21:31
  TRACK 48 AUDIO
    TITLE "2:cjc133_0266"
    INDEX 01 01:22:07
  TRACK 49 AUDIO
    TITLE "2:cjc133_0267"
    INDEX 01 01:23:36
  TRACK 50 AUDIO
    TITLE "2:cjc133_0268"
    INDEX 01 01:26:32
  TRACK 51 AUDIO
    TITLE "0:"
    INDEX 01 01:28:33
  TRACK 52 AUDIO
    TITLE "2:cjc133_0269"
    INDEX 01 01:29:07
  TRACK 53 AUDIO
    TITLE "2:cjc133_0270"
    INDEX 01 01:30:03
  TRACK 54 AUDIO
    TITLE "2:cjc133_0271"
    INDEX 01 01:33:07
  TRACK 55 AUDIO
    TITLE "0:"
    INDEX 01 01:35:10
  TRACK 56 AUDIO
    TITLE "2:cjc133_0272"
    INDEX 01 01:35:59
  TRACK 57 AUDIO
    TITLE "2:cjc133_0273"
    INDEX 01 01:38:53
  TRACK 58 AUDIO
    TITLE "2:cjc133_0274"
    INDEX 01 01:41:69
  TRACK 59 AUDIO
    TITLE "0:"
    INDEX 01 01:44:23
  TRACK 60 AUDIO
    TITLE "2:cjc133_0275"
    INDEX 01 01:45:00
  TRACK 61 AUDIO
    TITLE "2:cjc133_0276"
    INDEX 01 01:46:33
  TRACK 62 AUDIO
    TITLE "2:cjc133_0277"
    INDEX 01 01:49:35
  TRACK 63 AUDIO
    TITLE "0:"
    INDEX 01 01:51:52
